# xmcd
#
# Track frame offsets: 
#        150
#        17891
#        39095
#        62829
#        84127
#        99651
#        117272
#        135832
#        152750
#        173144
#
# Disc length: 2643 seconds
#
# Revision: 1
# Processed by: cddbd v1.5.2PL0 Copyright (c) Steve Scherf et al.
# Submitted via: ExactAudioCopy v0.99pb3
#
DISCID=6e0a510a
DTITLE=Hubert Laws - Moondance
DYEAR=2004
DGENRE=Jazz
TTITLE0=Moondance
TTITLE1=Bloodshot
TTITLE2=Stay With Me
TTITLE3=Summer of '75
TTITLE4=Stinky
TTITLE5=Nighttime Daydream
TTITLE6=Malibu
TTITLE7=Love You Tonight
TTITLE8=Clarita
TTITLE9=Kiss
EXTD=YEAR: 2004
EXTT0=
EXTT1=
EXTT2=
EXTT3=
EXTT4=
EXTT5=
EXTT6=
EXTT7=
EXTT8=
EXTT9=
PLAYORDER=
